Coordinates
version=1
nRows=6
nColumns=63
inDegrees=yes

Units are S.I. units (second, meters, Newtons, ...)
If the header above contains a line with 'inDegrees', this indicates whether rotational values are in degrees (yes) or radians (no).

endheader
time	pelvis_tilt	pelvis_list	pelvis_rotation	pelvis_tx	pelvis_ty	pelvis_tz	hip_flexion_r	hip_adduction_r	hip_rotation_r	knee_angle_r	knee_angle_r_beta	ankle_angle_r	subtalar_angle_r	mtp_angle_r	hip_flexion_l	hip_adduction_l	hip_rotation_l	knee_angle_l	knee_angle_l_beta	ankle_angle_l	subtalar_angle_l	mtp_angle_l	L5_S1_Flex_Ext	L5_S1_Lat_Bending	L5_S1_axial_rotation	L4_L5_Flex_Ext	L4_L5_Lat_Bending	L4_L5_axial_rotation	L3_L4_Flex_Ext	L3_L4_Lat_Bending	L3_L4_axial_rotation	L2_L3_Flex_Ext	L2_L3_Lat_Bending	L2_L3_axial_rotation	L1_L2_Flex_Ext	L1_L2_Lat_Bending	L1_L2_axial_rotation	L1_T12_Flex_Ext	L1_T12_Lat_Bending	L1_T12_axial_rotation	Abs_r3	Abs_r2	Abs_r1	Abs_t1	Abs_t2	neck_flexion	neck_bending	neck_rotation	arm_flex_r	arm_add_r	arm_rot_r	elbow_flex_r	pro_sup_r	wrist_flex_r	wrist_dev_r	arm_flex_l	arm_add_l	arm_rot_l	elbow_flex_l	pro_sup_l	wrist_flex_l	wrist_dev_l
     10.55932203	      4.82837869	    -16.65615829	    112.63002273	      0.19447495	      0.34280920	      0.67870535	      4.12338768	      0.91747401	     -7.09544559	      1.15004502	      0.02007207	     21.19722888	    -16.88081894	      0.00000000	      7.57754159	     -1.36413091	      9.90285355	      1.24524318	      0.02173359	     33.91481984	     -1.23418656	      0.00000000	      0.11206311	     -0.06934167	     -0.61816427	      0.20811240	     -0.09222441	     -0.65679954	      0.18410848	     -0.16859732	     -0.65679954	      0.12807693	     -0.16859732	     -0.54089374	      0.10406180	     -0.14140152	     -0.50225847	      0.06403286	     -0.10741024	     -0.46362321	      0.80045558	     -0.78440678	     -3.43804424	      0.00000000	      0.00000000	     25.70766961	     -5.02535725	     -3.42264863	     12.93482137	     -1.81440282	    153.28006014	     10.37620685	      2.55121704	    -10.59236283	    -10.94217901	     16.45798728	     -3.75422072	    166.41481793	      0.48104264	      7.12559450	    -20.75289326	     -7.56250239
     10.57627119	      4.77816537	    -16.52715513	    112.44261253	      0.19458648	      0.34289980	      0.67842126	      3.81679924	      0.92449826	     -7.13606245	      1.05238253	      0.01836754	     21.00956271	    -16.69186475	      0.00000000	      7.39076377	     -1.40490056	      8.81599132	      1.42296498	      0.02483542	     33.39394921	     -0.77433458	      0.00000000	      0.10252780	     -0.06447148	     -0.58505845	      0.19040437	     -0.08574706	     -0.62162460	      0.16844292	     -0.15675595	     -0.62162460	      0.11717902	     -0.15675595	     -0.51192614	      0.09520731	     -0.13147024	     -0.47535999	      0.05858438	     -0.09986632	     -0.43879384	      0.73234581	     -0.72931424	     -3.25391958	      0.00000000	      0.00000000	     25.56306305	     -5.09111465	     -3.07626789	     13.58482209	     -3.47223880	    138.53633268	     14.03640890	      6.05435890	    -10.87534849	    -11.71363355	     16.58507779	     -3.61976423	    165.39612003	      0.52072037	      6.41534638	    -21.58918331	     -8.58922524
     10.59322034	      4.71280376	    -16.48124517	    112.33310708	      0.19485776	      0.34289626	      0.67851974	      3.61819340	      0.88242879	     -7.34372349	      1.02898283	      0.01795914	     20.83669384	    -16.63403476	      0.00000000	      7.31128207	     -1.39657699	      8.24993089	      1.61748044	      0.02823036	     32.83383537	     -1.00945371	      0.00000000	      0.09738537	     -0.06881798	     -0.55766229	      0.18085436	     -0.09152791	     -0.59251618	      0.15999442	     -0.16732404	     -0.59251618	      0.11130173	     -0.16732404	     -0.48795450	      0.09043205	     -0.14033363	     -0.45310061	      0.05564600	     -0.10659905	     -0.41824672	      0.69561393	     -0.77848277	     -3.10155037	      0.00000000	      0.00000000	     25.58613619	     -5.14894742	     -2.99543340	     14.07504621	     -3.90025117	    136.34118734	     14.92601710	      4.83214565	    -10.43307740	    -12.29614473	     16.67636402	     -3.51796219	    164.84186220	      0.51900733	      5.66684547	    -21.57529381	     -9.24740930
     10.61016949	      4.85197316	    -16.49329826	    112.39954266	      0.19480311	      0.34251992	      0.67926038	      3.59241092	      0.95525956	     -7.52387464	      1.08535516	      0.01894302	     20.65880385	    -16.48095175	      0.00000000	      7.45895804	     -1.51872482	      7.14545990	      1.86950136	      0.03262895	     32.62615397	     -0.30044454	      0.00000000	      0.11036515	     -0.05084484	     -0.52516189	      0.20495912	     -0.06762363	     -0.55798451	      0.18131891	     -0.12362414	     -0.55798451	      0.12613633	     -0.12362414	     -0.45951665	      0.10248508	     -0.10368279	     -0.42669404	      0.06306265	     -0.07875865	     -0.39387142	      0.78832724	     -0.57516697	     -2.92079288	      0.00000000	      0.00000000	     25.76461558	     -5.17503731	     -3.03548754	     13.87100419	     -6.35845515	    118.27093538	     18.57060323	     15.99112893	    -11.65863510	    -10.90866858	     16.75568988	     -3.30270096	    164.85855949	      0.52387764	      4.97475973	    -20.91831720	    -10.01045706
     10.62711864	      4.71431046	    -16.58025594	    112.37045648	      0.19521059	      0.34237375	      0.67992808	      3.56188219	      0.77075486	     -7.58625036	      1.14103870	      0.01991488	     20.58016007	    -16.36105183	      0.00000000	      7.58899354	     -1.36405056	      6.80293305	      2.09512442	      0.03656682	     32.26982881	     -0.46247408	      0.00000000	      0.11857794	     -0.06869258	     -0.50947836	      0.22021109	     -0.09136113	     -0.54132076	      0.19481169	     -0.16701914	     -0.54132076	      0.13552272	     -0.16701914	     -0.44579357	      0.11011147	     -0.14007791	     -0.41395117	      0.06775543	     -0.10640481	     -0.38210877	      0.84699035	     -0.77706422	     -2.83356581	      0.00000000	      0.00000000	     26.09132929	     -4.82936402	     -2.83656314	     14.30344988	     -6.72512507	    116.41032344	     19.32347201	     14.79001873	    -11.26190168	    -11.23245526	     16.74040571	     -3.25646070	    164.91523301	      0.53934639	      4.66687894	    -20.32082624	    -10.63803926
     10.64406780	      4.63008268	    -16.73983832	    112.36978977	      0.19565868	      0.34223695	      0.68071889	      3.64838720	      0.59606607	     -7.43542266	      1.18801427	      0.02073476	     20.35517440	    -16.16392016	      0.00000000	      7.77026765	     -1.22584494	      6.75272764	      2.12124808	      0.03702276	     32.09892841	     -0.45781229	      0.00000000	      0.13865777	     -0.08340625	     -0.52127563	      0.25750135	     -0.11093031	     -0.55385536	      0.22780086	     -0.20279394	     -0.55385536	      0.15847197	     -0.20279394	     -0.45611618	      0.12875761	     -0.17008202	     -0.42353645	      0.07922905	     -0.12919627	     -0.39095672	      0.99041862	     -0.94350813	     -2.89917867	      0.00000000	      0.00000000	     26.47661069	     -4.67223954	     -2.85278155	     14.93265548	     -6.80480392	    116.15232401	     19.57387993	     14.74248797	    -11.11027278	    -11.31832771	     16.62832422	     -3.15529874	    165.02232858	      0.58234270	      4.65248218	    -20.01126139	    -10.80596401
